<mxfile host="Electron" modified="2024-02-09T04:46:32.889Z" agent="Mozilla/5.0 (X11; Linux x86_64) AppleWebKit/537.36 (KHTML, like Gecko) draw.io/22.1.21 Chrome/120.0.6099.109 Electron/28.1.0 Safari/537.36" etag="Oh7JsTDxx5fqfRNnh7fZ" version="22.1.21" type="device">
  <diagram name="Page-1" id="UgkzKDdlbD2YLOSZ790F">
    <mxGraphModel dx="579" dy="907" grid="0" gridSize="10" guides="1" tooltips="1" connect="1" arrows="1" fold="1" page="1" pageScale="1" pageWidth="850" pageHeight="1100" math="0" shadow="0">
      <root>
        <mxCell id="0" />
        <mxCell id="1" parent="0" />
        <mxCell id="WaaS-qGKVErQEOPKYESH-2" value="" style="group;fillColor=#232136;strokeColor=#232136;strokeWidth=25;container=0;movable=1;resizable=1;rotatable=1;deletable=1;editable=1;locked=0;connectable=1;" parent="1" vertex="1" connectable="0">
          <mxGeometry x="1019" y="441" width="939" height="482" as="geometry" />
        </mxCell>
        <mxCell id="8EcmWhbXSmjdKj1gGmlr-1" value="" style="group" vertex="1" connectable="0" parent="1">
          <mxGeometry x="1589" y="492" width="343.5" height="384" as="geometry" />
        </mxCell>
        <mxCell id="WaaS-qGKVErQEOPKYESH-149" value="&lt;div style=&quot;text-align: center; font-size: 18px;&quot;&gt;&lt;span style=&quot;background-color: initial; font-size: 18px;&quot;&gt;&lt;b style=&quot;font-size: 18px;&quot;&gt;Estado de referencia: Patio&lt;/b&gt;&lt;/span&gt;&lt;/div&gt;" style="text;whiteSpace=wrap;html=1;fontSize=18;fontFamily=Helvetica;fontColor=#FFFFFF;container=0;" parent="8EcmWhbXSmjdKj1gGmlr-1" vertex="1">
          <mxGeometry y="-4" width="247" height="40" as="geometry" />
        </mxCell>
        <mxCell id="WaaS-qGKVErQEOPKYESH-105" value="&lt;div style=&quot;text-align: center;&quot;&gt;&lt;span style=&quot;background-color: initial;&quot;&gt;&lt;b&gt;Greenhouse&lt;/b&gt;&lt;/span&gt;&lt;/div&gt;" style="text;whiteSpace=wrap;html=1;fontSize=18;fontFamily=Helvetica;fontColor=#FFFFFF;container=0;" parent="8EcmWhbXSmjdKj1gGmlr-1" vertex="1">
          <mxGeometry x="19" y="30" width="126" height="40" as="geometry" />
        </mxCell>
        <mxCell id="p2dUplIc6F6vgKtV86H0-14" value="&lt;div style=&quot;text-align: center; font-size: 18px;&quot;&gt;&lt;span style=&quot;background-color: initial; font-size: 18px;&quot;&gt;&lt;b style=&quot;font-size: 18px;&quot;&gt;Estado de referencia: House&lt;/b&gt;&lt;/span&gt;&lt;/div&gt;" style="text;whiteSpace=wrap;html=1;fontSize=18;fontFamily=Helvetica;fontColor=#FFFFFF;container=0;" parent="8EcmWhbXSmjdKj1gGmlr-1" vertex="1">
          <mxGeometry x="2.5" y="194" width="257.5" height="40" as="geometry" />
        </mxCell>
        <mxCell id="WaaS-qGKVErQEOPKYESH-18" value="" style="rounded=1;whiteSpace=wrap;html=1;labelBackgroundColor=none;strokeColor=#DB918D;strokeWidth=3;align=left;verticalAlign=top;fontFamily=Helvetica;fontSize=18;fontColor=#FFFFFF;fillColor=none;arcSize=7;container=0;" parent="8EcmWhbXSmjdKj1gGmlr-1" vertex="1">
          <mxGeometry x="19" y="60" width="307" height="113" as="geometry" />
        </mxCell>
        <mxCell id="WaaS-qGKVErQEOPKYESH-108" value="" style="rounded=1;whiteSpace=wrap;html=1;labelBackgroundColor=none;strokeColor=#FFFFFF;strokeWidth=3;align=left;verticalAlign=top;fontFamily=Helvetica;fontSize=18;fontColor=#FFFFFF;fillColor=none;arcSize=4;dashed=1;container=0;" parent="8EcmWhbXSmjdKj1gGmlr-1" vertex="1">
          <mxGeometry x="2" y="28" width="339" height="158" as="geometry" />
        </mxCell>
        <mxCell id="WaaS-qGKVErQEOPKYESH-31" value="Requeridos" style="text;html=1;strokeColor=none;fillColor=none;align=left;verticalAlign=middle;whiteSpace=wrap;rounded=0;fontSize=18;fontFamily=Helvetica;fontColor=#FFFFFF;container=0;" parent="8EcmWhbXSmjdKj1gGmlr-1" vertex="1">
          <mxGeometry x="34" y="58" width="75" height="30" as="geometry" />
        </mxCell>
        <mxCell id="p2dUplIc6F6vgKtV86H0-4" value="" style="rounded=1;whiteSpace=wrap;html=1;labelBackgroundColor=none;strokeColor=#DB918D;strokeWidth=3;align=left;verticalAlign=top;fontFamily=Helvetica;fontSize=18;fontColor=#FFFFFF;fillColor=none;container=0;" parent="8EcmWhbXSmjdKj1gGmlr-1" vertex="1">
          <mxGeometry x="231.5" y="94" width="75" height="60" as="geometry" />
        </mxCell>
        <mxCell id="p2dUplIc6F6vgKtV86H0-2" value="" style="rounded=1;whiteSpace=wrap;html=1;labelBackgroundColor=none;strokeColor=#DB918D;strokeWidth=3;align=left;verticalAlign=top;fontFamily=Helvetica;fontSize=18;fontColor=#FFFFFF;fillColor=none;container=0;" parent="8EcmWhbXSmjdKj1gGmlr-1" vertex="1">
          <mxGeometry x="136" y="94" width="75" height="60" as="geometry" />
        </mxCell>
        <mxCell id="WaaS-qGKVErQEOPKYESH-28" value="" style="rounded=1;whiteSpace=wrap;html=1;labelBackgroundColor=none;strokeColor=#DB918D;strokeWidth=3;align=left;verticalAlign=top;fontFamily=Helvetica;fontSize=18;fontColor=#FFFFFF;fillColor=none;container=0;" parent="8EcmWhbXSmjdKj1gGmlr-1" vertex="1">
          <mxGeometry x="38" y="94" width="75" height="60" as="geometry" />
        </mxCell>
        <mxCell id="WaaS-qGKVErQEOPKYESH-81" value="" style="sketch=0;outlineConnect=0;dashed=0;verticalLabelPosition=bottom;verticalAlign=top;align=center;html=1;fontSize=18;fontStyle=0;aspect=fixed;pointerEvents=1;shape=mxgraph.aws4.iot_thing_temperature_sensor;rounded=1;labelBackgroundColor=none;strokeWidth=3;fontFamily=Helvetica;container=0;" parent="8EcmWhbXSmjdKj1gGmlr-1" vertex="1">
          <mxGeometry x="50.5" y="99" width="50" height="50" as="geometry" />
        </mxCell>
        <mxCell id="p2dUplIc6F6vgKtV86H0-11" value="" style="sketch=0;outlineConnect=0;fontColor=#232F3E;gradientColor=none;fillColor=#FFFFFF;strokeColor=none;dashed=0;verticalLabelPosition=bottom;verticalAlign=top;align=center;html=1;fontSize=12;fontStyle=0;aspect=fixed;pointerEvents=1;shape=mxgraph.aws4.iot_thing_humidity_sensor;rounded=1;strokeWidth=4;fontFamily=Helvetica;container=0;" parent="8EcmWhbXSmjdKj1gGmlr-1" vertex="1">
          <mxGeometry x="148.5" y="99" width="50" height="50" as="geometry" />
        </mxCell>
        <mxCell id="WaaS-qGKVErQEOPKYESH-98" value="" style="sketch=0;outlineConnect=0;fontColor=#232F3E;gradientColor=none;strokeColor=#FFFFFF;fillColor=none;dashed=0;verticalLabelPosition=bottom;verticalAlign=top;align=center;html=1;fontSize=18;fontStyle=0;aspect=fixed;shape=mxgraph.aws4.resourceIcon;resIcon=mxgraph.aws4.generic;rounded=1;labelBackgroundColor=none;strokeWidth=3;fontFamily=Helvetica;container=0;" parent="8EcmWhbXSmjdKj1gGmlr-1" vertex="1">
          <mxGeometry x="239.75" y="94.75" width="58.5" height="58.5" as="geometry" />
        </mxCell>
        <mxCell id="p2dUplIc6F6vgKtV86H0-13" value="" style="rounded=1;whiteSpace=wrap;html=1;labelBackgroundColor=none;strokeColor=#FFFFFF;strokeWidth=3;align=left;verticalAlign=top;fontFamily=Helvetica;fontSize=18;fontColor=#FFFFFF;fillColor=none;arcSize=4;dashed=1;container=0;" parent="8EcmWhbXSmjdKj1gGmlr-1" vertex="1">
          <mxGeometry x="4.5" y="226" width="339" height="158" as="geometry" />
        </mxCell>
        <mxCell id="p2dUplIc6F6vgKtV86H0-24" value="&lt;div style=&quot;text-align: center;&quot;&gt;&lt;span style=&quot;background-color: initial;&quot;&gt;&lt;b&gt;Basement&lt;/b&gt;&lt;/span&gt;&lt;/div&gt;" style="text;whiteSpace=wrap;html=1;fontSize=18;fontFamily=Helvetica;fontColor=#FFFFFF;container=0;" parent="8EcmWhbXSmjdKj1gGmlr-1" vertex="1">
          <mxGeometry x="198" y="228" width="128.5" height="40" as="geometry" />
        </mxCell>
        <mxCell id="p2dUplIc6F6vgKtV86H0-23" value="" style="rounded=1;whiteSpace=wrap;html=1;labelBackgroundColor=none;strokeColor=#DB918D;strokeWidth=3;align=left;verticalAlign=top;fontFamily=Helvetica;fontSize=18;fontColor=#FFFFFF;fillColor=none;arcSize=7;container=0;" parent="8EcmWhbXSmjdKj1gGmlr-1" vertex="1">
          <mxGeometry x="198" y="258" width="127.5" height="113" as="geometry" />
        </mxCell>
        <mxCell id="p2dUplIc6F6vgKtV86H0-25" value="Opcionales" style="text;html=1;strokeColor=none;fillColor=none;align=left;verticalAlign=middle;whiteSpace=wrap;rounded=0;fontSize=18;fontFamily=Helvetica;fontColor=#FFFFFF;container=0;" parent="8EcmWhbXSmjdKj1gGmlr-1" vertex="1">
          <mxGeometry x="213" y="256" width="75" height="30" as="geometry" />
        </mxCell>
        <mxCell id="p2dUplIc6F6vgKtV86H0-28" value="" style="rounded=1;whiteSpace=wrap;html=1;labelBackgroundColor=none;strokeColor=#DB918D;strokeWidth=3;align=left;verticalAlign=top;fontFamily=Helvetica;fontSize=18;fontColor=#FFFFFF;fillColor=none;container=0;" parent="8EcmWhbXSmjdKj1gGmlr-1" vertex="1">
          <mxGeometry x="217" y="292" width="75" height="60" as="geometry" />
        </mxCell>
        <mxCell id="p2dUplIc6F6vgKtV86H0-31" value="" style="sketch=0;outlineConnect=0;fontColor=#232F3E;gradientColor=none;strokeColor=#FFFFFF;fillColor=none;dashed=0;verticalLabelPosition=bottom;verticalAlign=top;align=center;html=1;fontSize=18;fontStyle=0;aspect=fixed;shape=mxgraph.aws4.resourceIcon;resIcon=mxgraph.aws4.generic;rounded=1;labelBackgroundColor=none;strokeWidth=3;fontFamily=Helvetica;container=0;" parent="8EcmWhbXSmjdKj1gGmlr-1" vertex="1">
          <mxGeometry x="222.75" y="292.75" width="58.5" height="58.5" as="geometry" />
        </mxCell>
        <mxCell id="p2dUplIc6F6vgKtV86H0-15" value="&lt;div style=&quot;text-align: center;&quot;&gt;&lt;span style=&quot;background-color: initial;&quot;&gt;&lt;b&gt;First Floor&lt;/b&gt;&lt;/span&gt;&lt;/div&gt;" style="text;whiteSpace=wrap;html=1;fontSize=18;fontFamily=Helvetica;fontColor=#FFFFFF;container=0;" parent="8EcmWhbXSmjdKj1gGmlr-1" vertex="1">
          <mxGeometry x="21.5" y="228" width="128.5" height="40" as="geometry" />
        </mxCell>
        <mxCell id="p2dUplIc6F6vgKtV86H0-12" value="" style="rounded=1;whiteSpace=wrap;html=1;labelBackgroundColor=none;strokeColor=#DB918D;strokeWidth=3;align=left;verticalAlign=top;fontFamily=Helvetica;fontSize=18;fontColor=#FFFFFF;fillColor=none;arcSize=7;container=0;" parent="8EcmWhbXSmjdKj1gGmlr-1" vertex="1">
          <mxGeometry x="21.5" y="258" width="127.5" height="113" as="geometry" />
        </mxCell>
        <mxCell id="p2dUplIc6F6vgKtV86H0-16" value="Requeridos" style="text;html=1;strokeColor=none;fillColor=none;align=left;verticalAlign=middle;whiteSpace=wrap;rounded=0;fontSize=18;fontFamily=Helvetica;fontColor=#FFFFFF;container=0;" parent="8EcmWhbXSmjdKj1gGmlr-1" vertex="1">
          <mxGeometry x="36.5" y="256" width="75" height="30" as="geometry" />
        </mxCell>
        <mxCell id="p2dUplIc6F6vgKtV86H0-19" value="" style="rounded=1;whiteSpace=wrap;html=1;labelBackgroundColor=none;strokeColor=#DB918D;strokeWidth=3;align=left;verticalAlign=top;fontFamily=Helvetica;fontSize=18;fontColor=#FFFFFF;fillColor=none;container=0;" parent="8EcmWhbXSmjdKj1gGmlr-1" vertex="1">
          <mxGeometry x="40.5" y="292" width="75" height="60" as="geometry" />
        </mxCell>
        <mxCell id="p2dUplIc6F6vgKtV86H0-20" value="" style="sketch=0;outlineConnect=0;dashed=0;verticalLabelPosition=bottom;verticalAlign=top;align=center;html=1;fontSize=18;fontStyle=0;aspect=fixed;pointerEvents=1;shape=mxgraph.aws4.iot_thing_temperature_sensor;rounded=1;labelBackgroundColor=none;strokeWidth=3;fontFamily=Helvetica;container=0;" parent="8EcmWhbXSmjdKj1gGmlr-1" vertex="1">
          <mxGeometry x="53" y="297" width="50" height="50" as="geometry" />
        </mxCell>
        <mxCell id="8EcmWhbXSmjdKj1gGmlr-17" value="" style="group" vertex="1" connectable="0" parent="1">
          <mxGeometry x="1040" y="456.75" width="470" height="454.5" as="geometry" />
        </mxCell>
        <mxCell id="8EcmWhbXSmjdKj1gGmlr-3" value="&lt;font style=&quot;font-size: 17px;&quot;&gt;Application - Patio&lt;/font&gt;" style="text;html=1;strokeColor=none;fillColor=none;align=left;verticalAlign=middle;whiteSpace=wrap;rounded=0;fontSize=17;fontFamily=Helvetica;fontColor=#FFFFFF;container=0;" vertex="1" parent="8EcmWhbXSmjdKj1gGmlr-17">
          <mxGeometry x="95" width="191" height="30" as="geometry" />
        </mxCell>
        <mxCell id="8EcmWhbXSmjdKj1gGmlr-4" value="" style="rounded=1;whiteSpace=wrap;html=1;fontFamily=Helvetica;fontSize=13;fontColor=#FFFFFF;fillColor=none;strokeWidth=3;dashed=1;strokeColor=#FFFFFF;container=0;arcSize=4;align=left;verticalAlign=top;labelBackgroundColor=none;" vertex="1" parent="8EcmWhbXSmjdKj1gGmlr-17">
          <mxGeometry x="95" y="30" width="280" height="189" as="geometry" />
        </mxCell>
        <mxCell id="8EcmWhbXSmjdKj1gGmlr-5" value="&lt;p style=&quot;margin: 4px 0px 0px; text-align: center; font-size: 13px;&quot;&gt;&lt;font style=&quot;font-size: 13px;&quot;&gt;&lt;b style=&quot;font-size: 13px;&quot;&gt;Location - Greenhouse&lt;/b&gt;&lt;/font&gt;&lt;/p&gt;&lt;hr style=&quot;font-size: 13px;&quot;&gt;&lt;p style=&quot;margin: 0px 0px 0px 4px; font-size: 13px;&quot;&gt;&lt;font style=&quot;font-size: 13px;&quot;&gt;Required:&lt;br style=&quot;font-size: 13px;&quot;&gt;&amp;nbsp;+ 1 Temperature component&amp;nbsp;&lt;/font&gt;&lt;/p&gt;&lt;p style=&quot;margin: 0px 0px 0px 4px; font-size: 13px;&quot;&gt;&lt;font style=&quot;font-size: 13px;&quot;&gt;&amp;nbsp; &amp;nbsp; &amp;nbsp; &amp;nbsp;reporting every 30 seconds&lt;/font&gt;&lt;/p&gt;&lt;p style=&quot;margin: 0px 0px 0px 4px; font-size: 13px;&quot;&gt;&lt;font style=&quot;font-size: 13px;&quot;&gt;&amp;nbsp;+ 1 Humidity components&lt;br style=&quot;font-size: 13px;&quot;&gt;&amp;nbsp; &amp;nbsp; &amp;nbsp; &amp;nbsp;reporting every 120 seconds&lt;br style=&quot;font-size: 13px;&quot;&gt;+ 1&amp;nbsp; CO2 component&lt;/font&gt;&lt;br style=&quot;border-color: var(--border-color); font-size: 13px;&quot;&gt;&lt;span style=&quot;font-size: 13px;&quot;&gt;&amp;nbsp; &amp;nbsp; &amp;nbsp; &amp;nbsp;reporting every 120 seconds&lt;/span&gt;&lt;font style=&quot;font-size: 13px;&quot;&gt;&lt;br style=&quot;font-size: 13px;&quot;&gt;&lt;/font&gt;&lt;/p&gt;" style="verticalAlign=top;align=left;overflow=fill;fontSize=13;fontFamily=Helvetica;html=1;whiteSpace=wrap;strokeColor=#DB918D;fontColor=#FFFFFF;fillColor=none;labelBackgroundColor=none;strokeWidth=3;container=0;" vertex="1" parent="8EcmWhbXSmjdKj1gGmlr-17">
          <mxGeometry x="125" y="53.07999999999993" width="220" height="146.92" as="geometry" />
        </mxCell>
        <mxCell id="8EcmWhbXSmjdKj1gGmlr-7" value="&lt;font style=&quot;font-size: 17px;&quot;&gt;Application - House&lt;/font&gt;" style="text;html=1;strokeColor=none;fillColor=none;align=left;verticalAlign=middle;whiteSpace=wrap;rounded=0;fontSize=17;fontFamily=Helvetica;fontColor=#FFFFFF;container=0;" vertex="1" parent="8EcmWhbXSmjdKj1gGmlr-17">
          <mxGeometry y="234.5" width="189" height="30" as="geometry" />
        </mxCell>
        <mxCell id="8EcmWhbXSmjdKj1gGmlr-8" value="" style="rounded=1;whiteSpace=wrap;html=1;fontFamily=Helvetica;fontSize=13;fontColor=#FFFFFF;fillColor=none;strokeWidth=3;dashed=1;strokeColor=#FFFFFF;container=0;arcSize=4;align=left;verticalAlign=top;labelBackgroundColor=none;" vertex="1" parent="8EcmWhbXSmjdKj1gGmlr-17">
          <mxGeometry y="264.5" width="470" height="190" as="geometry" />
        </mxCell>
        <mxCell id="8EcmWhbXSmjdKj1gGmlr-9" value="&lt;p style=&quot;margin: 4px 0px 0px; text-align: center; font-size: 13px;&quot;&gt;&lt;font style=&quot;font-size: 13px;&quot;&gt;&lt;b style=&quot;font-size: 13px;&quot;&gt;Location - House&lt;/b&gt;&lt;/font&gt;&lt;/p&gt;&lt;hr style=&quot;font-size: 13px;&quot;&gt;&lt;p style=&quot;margin: 0px 0px 0px 4px; font-size: 13px;&quot;&gt;&lt;br style=&quot;font-size: 13px;&quot;&gt;&lt;/p&gt;" style="verticalAlign=top;align=left;overflow=fill;fontSize=13;fontFamily=Helvetica;html=1;whiteSpace=wrap;strokeColor=#DB918D;fontColor=#FFFFFF;fillColor=none;labelBackgroundColor=none;strokeWidth=3;container=0;" vertex="1" parent="8EcmWhbXSmjdKj1gGmlr-17">
          <mxGeometry x="175" y="284.5" width="120" height="40" as="geometry" />
        </mxCell>
        <mxCell id="8EcmWhbXSmjdKj1gGmlr-10" style="edgeStyle=orthogonalEdgeStyle;shape=connector;curved=0;rounded=1;orthogonalLoop=1;jettySize=auto;html=1;exitX=0;exitY=0.5;exitDx=0;exitDy=0;labelBackgroundColor=default;strokeColor=#DB918D;strokeWidth=3;align=center;verticalAlign=middle;fontFamily=Helvetica;fontSize=13;fontColor=#FFFFFF;endArrow=none;endFill=0;" edge="1" parent="8EcmWhbXSmjdKj1gGmlr-17" source="8EcmWhbXSmjdKj1gGmlr-9" target="8EcmWhbXSmjdKj1gGmlr-13">
          <mxGeometry relative="1" as="geometry" />
        </mxCell>
        <mxCell id="8EcmWhbXSmjdKj1gGmlr-11" style="edgeStyle=orthogonalEdgeStyle;shape=connector;curved=0;rounded=1;orthogonalLoop=1;jettySize=auto;html=1;labelBackgroundColor=default;strokeColor=#DB918D;strokeWidth=3;align=center;verticalAlign=middle;fontFamily=Helvetica;fontSize=13;fontColor=#FFFFFF;endArrow=none;endFill=0;exitX=1;exitY=0.5;exitDx=0;exitDy=0;" edge="1" parent="8EcmWhbXSmjdKj1gGmlr-17" source="8EcmWhbXSmjdKj1gGmlr-9" target="8EcmWhbXSmjdKj1gGmlr-14">
          <mxGeometry relative="1" as="geometry" />
        </mxCell>
        <mxCell id="8EcmWhbXSmjdKj1gGmlr-13" value="&lt;p style=&quot;margin: 4px 0px 0px; text-align: center; font-size: 13px;&quot;&gt;&lt;font style=&quot;font-size: 13px;&quot;&gt;&lt;b style=&quot;font-size: 13px;&quot;&gt;Location - First Floor&lt;/b&gt;&lt;/font&gt;&lt;/p&gt;&lt;hr style=&quot;font-size: 13px;&quot;&gt;&lt;p style=&quot;margin: 0px 0px 0px 4px; font-size: 13px;&quot;&gt;&lt;font style=&quot;font-size: 13px;&quot;&gt;Required:&lt;br style=&quot;font-size: 13px;&quot;&gt;&amp;nbsp;+ 1&amp;nbsp; Temperature component&amp;nbsp;&lt;/font&gt;&lt;/p&gt;&lt;p style=&quot;margin: 0px 0px 0px 4px; font-size: 13px;&quot;&gt;&lt;font style=&quot;font-size: 13px;&quot;&gt;&lt;span style=&quot;white-space: pre; font-size: 13px;&quot;&gt;&#x9;&lt;/span&gt;reporting every 30 seconds&lt;br style=&quot;font-size: 13px;&quot;&gt;&amp;nbsp;&lt;/font&gt;&lt;/p&gt;" style="verticalAlign=top;align=left;overflow=fill;fontSize=13;fontFamily=Helvetica;html=1;whiteSpace=wrap;strokeColor=#DB918D;fontColor=#FFFFFF;fillColor=none;labelBackgroundColor=none;strokeWidth=3;container=0;" vertex="1" parent="8EcmWhbXSmjdKj1gGmlr-17">
          <mxGeometry x="20" y="344.5" width="190" height="90" as="geometry" />
        </mxCell>
        <mxCell id="8EcmWhbXSmjdKj1gGmlr-14" value="&lt;p style=&quot;margin: 4px 0px 0px; text-align: center; font-size: 13px;&quot;&gt;&lt;font style=&quot;font-size: 13px;&quot;&gt;&lt;b style=&quot;font-size: 13px;&quot;&gt;Location - Basement&lt;/b&gt;&lt;/font&gt;&lt;/p&gt;&lt;hr style=&quot;font-size: 13px;&quot;&gt;&lt;p style=&quot;margin: 0px 0px 0px 4px; font-size: 13px;&quot;&gt;&lt;font style=&quot;font-size: 13px;&quot;&gt;Optional:&lt;br style=&quot;font-size: 13px;&quot;&gt;&amp;nbsp;+ 1&amp;nbsp; CO component&amp;nbsp;&lt;/font&gt;&lt;/p&gt;&lt;p style=&quot;margin: 0px 0px 0px 4px; font-size: 13px;&quot;&gt;&lt;font style=&quot;font-size: 13px;&quot;&gt;&lt;span style=&quot;white-space: pre; font-size: 13px;&quot;&gt;&#x9;&lt;/span&gt;reporting every 30 seconds&lt;br style=&quot;font-size: 13px;&quot;&gt;&amp;nbsp;&lt;br style=&quot;font-size: 13px;&quot;&gt;&lt;/font&gt;&lt;/p&gt;" style="verticalAlign=top;align=left;overflow=fill;fontSize=13;fontFamily=Helvetica;html=1;whiteSpace=wrap;strokeColor=#DB918D;fontColor=#FFFFFF;fillColor=none;labelBackgroundColor=none;strokeWidth=3;container=0;" vertex="1" parent="8EcmWhbXSmjdKj1gGmlr-17">
          <mxGeometry x="260" y="344.5" width="190" height="90" as="geometry" />
        </mxCell>
      </root>
    </mxGraphModel>
  </diagram>
</mxfile>
